<?xml version="1.0" encoding="UTF-8"?>
<!DOCTYPE svg PUBLIC "-//W3C//DTD SVG 1.1//EN" "http://www.w3.org/Graphics/SVG/1.1/DTD/svg11.dtd">
<!-- Creator: CorelDRAW -->
<svg xmlns="http://www.w3.org/2000/svg" xml:space="preserve" width="6.82666in" height="6.82666in" style="shape-rendering:geometricPrecision; text-rendering:geometricPrecision; image-rendering:optimizeQuality; fill-rule:evenodd; clip-rule:evenodd"
viewBox="0 0 6.82666 6.82666"
 xmlns:xlink="http://www.w3.org/1999/xlink">
 <defs>
  <style type="text/css">
   <![CDATA[
    .fil2 {fill:none}
    .fil1 {fill:#90A4AE}
    .fil0 {fill:#CFD8DC}
    .fil3 {fill:#4A148C;fill-rule:nonzero}
    .fil5 {fill:#80DEEA;fill-rule:nonzero}
    .fil4 {fill:#FFF59D;fill-rule:nonzero}
   ]]>
  </style>
   <clipPath id="id0">
    <path d="M3.41333 0c1.88513,0 3.41333,1.5282 3.41333,3.41333 0,1.88513 -1.5282,3.41333 -3.41333,3.41333 -1.88513,0 -3.41333,-1.5282 -3.41333,-3.41333 0,-1.88513 1.5282,-3.41333 3.41333,-3.41333z"/>
   </clipPath>
 </defs>
 <g id="Layer_x0020_1">
  <metadata id="CorelCorpID_0Corel-Layer"/>
  <path class="fil0" d="M3.41333 0c1.88513,0 3.41333,1.5282 3.41333,3.41333 0,1.88513 -1.5282,3.41333 -3.41333,3.41333 -1.88513,0 -3.41333,-1.5282 -3.41333,-3.41333 0,-1.88513 1.5282,-3.41333 3.41333,-3.41333z"/>
  <g style="clip-path:url(#id0)">
   <g id="_328326288">
    <g>
     <polygon id="_3305573841" class="fil1" points="5.28,2.57802 9.06627,6.3643 9.06627,6.51985 5.28,2.73358 "/>
     <polygon id="_330557744" class="fil1" points="3.92997,2.18913 7.71624,5.97541 7.77428,6.3643 3.98801,2.57802 "/>
     <polygon id="_330557480" class="fil1" points="4.01123,2.73358 7.7975,6.51985 7.89037,7.14207 4.1041,3.3558 "/>
     <polygon id="_330558032" class="fil1" points="5.28,2.73358 9.06627,6.51985 7.7975,6.51985 4.01123,2.73358 "/>
     <polygon id="_330557960" class="fil1" points="5.28,3.51136 9.06627,7.29763 7.91359,7.29763 4.12732,3.51136 "/>
     <polygon id="_330558296" class="fil1" points="4.12732,3.51136 7.91359,7.29763 7.97462,7.70654 4.18835,3.92026 "/>
     <polygon id="_330558224" class="fil1" points="4.18835,3.92026 7.97462,7.70654 7.97552,7.71278 7.97623,7.71908 7.97678,7.72544 7.97715,7.73184 7.97734,7.7383 7.97736,7.7448 7.9772,7.75135 7.97687,7.75793 7.97636,7.76456 7.97567,7.77121 7.9748,7.7779 7.97375,7.78461 7.97252,7.79135 7.9711,7.79811 7.96951,7.80488 7.96774,7.81167 7.96578,7.81848 7.96363,7.82529 7.9613,7.83211 7.95879,7.83893 7.95609,7.84575 7.95321,7.85256 7.95013,7.85937 7.94687,7.86617 7.94343,7.87296 7.93979,7.87973 7.93596,7.88648 7.93194,7.89322 7.92773,7.89992 7.92333,7.9066 7.91873,7.91324 7.91394,7.91985 4.12768,4.13358 4.13246,4.12697 4.13706,4.12033 4.14146,4.11365 4.14567,4.10694 4.14969,4.10021 4.15352,4.09346 4.15716,4.08669 4.16061,4.0799 4.16387,4.0731 4.16694,4.06629 4.16982,4.05948 4.17252,4.05265 4.17504,4.04583 4.17736,4.03902 4.17951,4.0322 4.18147,4.0254 4.18324,4.01861 4.18483,4.01183 4.18625,4.00507 4.18748,3.99834 4.18853,3.99163 4.1894,3.98494 4.19009,3.97828 4.1906,3.97166 4.19094,3.96507 4.19109,3.95853 4.19107,3.95203 4.19088,3.94557 4.19051,3.93917 4.18996,3.93281 4.18925,3.92651 "/>
     <polygon id="_330558176" class="fil1" points="5.28,4.13358 9.06627,7.91985 9.06627,8.07541 5.28,4.28914 "/>
     <polygon id="_330558080" class="fil1" points="2.60648,2.73358 6.39275,6.51985 5.33293,6.51985 1.54666,2.73358 "/>
     <polygon id="_330525872" class="fil1" points="3.91548,4.28914 7.70174,8.07541 7.69234,8.07875 7.68294,8.08185 7.67356,8.08472 7.66418,8.08736 7.65483,8.08978 7.6455,8.09196 7.6362,8.09392 7.62694,8.09566 7.61772,8.09717 7.60854,8.09847 7.59941,8.09955 7.59033,8.10042 7.5813,8.10107 7.57235,8.10151 7.56345,8.10174 7.55463,8.10176 7.54589,8.10158 7.53722,8.10119 7.52864,8.1006 7.52015,8.09981 7.51176,8.09883 7.50346,8.09764 7.49527,8.09626 7.48719,8.09469 7.47922,8.09293 7.47137,8.09098 7.46364,8.08884 7.45604,8.08652 7.44857,8.08401 7.44123,8.08133 7.43404,8.07846 7.427,8.07541 3.64073,4.28914 3.64778,4.29219 3.65496,4.29506 3.6623,4.29774 3.66977,4.30025 3.67737,4.30257 3.6851,4.30471 3.69295,4.30666 3.70092,4.30842 3.709,4.30999 3.71719,4.31137 3.72549,4.31256 3.73388,4.31354 3.74237,4.31433 3.75095,4.31492 3.75962,4.31531 3.76836,4.31549 3.77719,4.31547 3.78608,4.31524 3.79504,4.3148 3.80406,4.31415 3.81314,4.31328 3.82227,4.3122 3.83145,4.3109 3.84068,4.30939 3.84994,4.30765 3.85924,4.30569 3.86856,4.3035 3.87791,4.30109 3.88729,4.29845 3.89667,4.29558 3.90607,4.29248 "/>
     <polygon id="_330526304" class="fil1" points="2.25289,3.03984 6.03916,6.82611 6.00827,7.14207 2.222,3.3558 "/>
     <polygon id="_330526400" class="fil1" points="2.13836,3.51136 5.92463,7.29763 5.33293,7.29763 1.54666,3.51136 "/>
     <polygon id="_330525848" class="fil1" points="2.33283,4.28914 6.11909,8.07541 5.33293,8.07541 1.54666,4.28914 "/>
     <polygon id="_330526184" class="fil1" points="2.0762,3.7284 5.86246,7.51467 5.85546,7.51553 5.8485,7.51609 5.84156,7.51635 5.83468,7.51633 5.82786,7.51603 5.82112,7.51546 5.81446,7.51464 5.80791,7.51356 5.80146,7.51223 5.79514,7.51066 5.78896,7.50886 5.78292,7.50684 5.77704,7.5046 5.77133,7.50216 5.76581,7.49951 5.76048,7.49668 5.75536,7.49365 5.75046,7.49046 5.74579,7.48709 5.74136,7.48356 5.73719,7.47987 1.95093,3.6936 1.95509,3.69729 1.95952,3.70081 1.96419,3.70419 1.96909,3.70738 1.97421,3.71041 1.97954,3.71324 1.98506,3.71589 1.99077,3.71833 1.99665,3.72057 2.00269,3.72259 2.00887,3.72439 2.0152,3.72596 2.02164,3.72728 2.0282,3.72837 2.03485,3.72919 2.04159,3.72976 2.04841,3.73006 2.0553,3.73008 2.06223,3.72981 2.0692,3.72926 "/>
     <polygon id="_330525944" class="fil1" points="2.20679,3.51136 5.99306,7.29763 5.98196,7.41107 2.1957,3.6248 "/>
     <polygon id="_330525968" class="fil1" points="2.1957,3.6248 5.98196,7.41107 5.98056,7.42033 5.97814,7.4294 5.97476,7.43825 5.97045,7.44684 5.96526,7.45513 5.95924,7.46308 5.95242,7.47065 5.94485,7.47778 5.93657,7.48446 5.92763,7.49062 5.91807,7.49624 5.90793,7.50127 5.89726,7.50567 5.88609,7.50939 5.87448,7.51241 5.86246,7.51467 2.0762,3.7284 2.08821,3.72614 2.09983,3.72312 2.11099,3.7194 2.12167,3.715 2.1318,3.70997 2.14137,3.70435 2.1503,3.69819 2.15858,3.69151 2.16615,3.68437 2.17297,3.67681 2.17899,3.66886 2.18418,3.66057 2.18849,3.65198 2.19187,3.64313 2.19429,3.63406 "/>
     <polygon id="_330526040" class="fil1" points="2.45474,3.92042 6.241,7.70669 6.24075,7.7112 6.24,7.71568 6.23878,7.72009 6.2371,7.72443 6.23498,7.72865 6.23245,7.73275 6.22952,7.7367 6.2262,7.74049 6.22253,7.74407 6.21851,7.74745 6.21417,7.75059 6.20952,7.75348 6.20458,7.75608 6.19938,7.75839 6.19393,7.76037 6.18826,7.76201 2.40199,3.97574 2.40767,3.9741 2.41311,3.97212 2.41831,3.96981 2.42325,3.96721 2.4279,3.96432 2.43224,3.96118 2.43626,3.9578 2.43994,3.95422 2.44325,3.95043 2.44619,3.94648 2.44872,3.94238 2.45083,3.93815 2.45251,3.93382 2.45374,3.92941 2.45448,3.92493 "/>
     <polygon id="_330525992" class="fil1" points="2.81457,4.54989 6.60084,8.33617 6.58455,8.34741 6.5681,8.35784 6.55153,8.36746 6.53485,8.37628 6.51809,8.38431 6.50129,8.39157 6.48446,8.39806 6.46763,8.40379 6.45084,8.40878 6.4341,8.41304 6.41745,8.41657 6.40091,8.41939 6.38451,8.4215 6.36827,8.42293 6.35222,8.42367 6.3364,8.42375 6.32081,8.42317 6.30551,8.42193 6.2905,8.42007 6.27581,8.41757 6.26148,8.41446 6.24753,8.41074 6.23398,8.40643 6.22087,8.40154 6.20821,8.39607 6.19605,8.39004 6.18439,8.38346 6.17328,8.37634 6.16274,8.36869 6.15278,8.36052 2.36652,4.57425 2.37647,4.58242 2.38701,4.59007 2.39813,4.59719 2.40978,4.60377 2.42194,4.6098 2.4346,4.61527 2.44771,4.62016 2.46126,4.62447 2.47521,4.62819 2.48954,4.6313 2.50423,4.6338 2.51924,4.63566 2.53455,4.63689 2.55013,4.63748 2.56596,4.6374 2.582,4.63666 2.59824,4.63523 2.61465,4.63311 2.63119,4.6303 2.64783,4.62676 2.66457,4.62251 2.68137,4.61752 2.69819,4.61179 2.71502,4.6053 2.73183,4.59804 2.74858,4.59001 2.76526,4.58119 2.78183,4.57157 2.79828,4.56114 "/>
     <polygon id="_330525824" class="fil1" points="2.2373,2.88906 6.02357,6.67533 6.02357,6.67543 6.02357,6.67572 6.02362,6.67621 6.02376,6.67694 6.024,6.67791 6.02438,6.67914 6.02495,6.68064 6.02573,6.68244 6.02675,6.68454 6.02805,6.68697 6.02966,6.68974 6.03162,6.69286 6.03396,6.69635 6.03671,6.70023 6.0399,6.70452 6.04357,6.70922 6.04776,6.71436 6.05249,6.71996 6.0578,6.72602 6.06372,6.73256 6.07028,6.7396 6.07752,6.74716 6.08548,6.75525 6.09418,6.76389 6.10366,6.77309 2.31739,2.98682 2.30791,2.97762 2.29921,2.96898 2.29126,2.96089 2.28401,2.95333 2.27745,2.94629 2.27153,2.93974 2.26622,2.93369 2.26149,2.92809 2.25731,2.92295 2.25363,2.91825 2.25044,2.91396 2.24769,2.91008 2.24535,2.90659 2.24339,2.90346 2.24178,2.9007 2.24048,2.89827 2.23946,2.89617 2.23868,2.89437 2.23811,2.89287 2.23773,2.89164 2.23749,2.89067 2.23735,2.88994 2.2373,2.88944 2.2373,2.88915 "/>
     <polygon id="_330527240" class="fil1" points="2.38607,3.11121 6.17233,6.89748 6.16254,6.88848 6.15292,6.88026 6.1435,6.8728 6.1343,6.86606 6.12536,6.86 6.1167,6.85458 6.10835,6.84978 6.10034,6.84554 6.09269,6.84184 6.08544,6.83865 6.07861,6.83591 6.07222,6.83361 6.06632,6.8317 6.06091,6.83014 6.05604,6.8289 6.05173,6.82794 6.048,6.82723 6.04489,6.82673 6.04243,6.82641 6.04063,6.82622 6.03954,6.82613 6.03916,6.82611 2.25289,3.03984 2.25327,3.03986 2.25437,3.03995 2.25616,3.04014 2.25863,3.04046 2.26174,3.04096 2.26546,3.04167 2.26978,3.04263 2.27465,3.04387 2.28005,3.04543 2.28596,3.04734 2.29234,3.04964 2.29917,3.05237 2.30643,3.05557 2.31407,3.05927 2.32209,3.0635 2.33043,3.06831 2.33909,3.07372 2.34804,3.07979 2.35723,3.08653 2.36665,3.09399 2.37628,3.1022 "/>
     <polygon id="_330526880" class="fil1" points="2.40835,3.06837 6.19462,6.85464 6.20264,6.86248 6.21011,6.87041 6.21704,6.87841 6.22345,6.88644 6.22937,6.89449 6.2348,6.90254 6.23979,6.91056 6.24433,6.91853 6.24846,6.92643 6.25219,6.93425 6.25554,6.94195 6.25853,6.94952 6.26119,6.95693 6.26352,6.96416 6.26556,6.97119 6.26731,6.978 6.26881,6.98457 6.27007,6.99087 6.27111,6.99688 6.27195,7.00259 6.27261,7.00796 6.2731,7.01298 6.27346,7.01763 6.27369,7.02187 6.27383,7.02571 6.27388,7.0291 6.27387,7.03203 6.27381,7.03447 6.27374,7.03641 6.27366,7.03783 6.27359,7.03869 6.27357,7.03898 2.4873,3.25271 2.48733,3.25242 2.48739,3.25156 2.48747,3.25014 2.48754,3.2482 2.4876,3.24576 2.48761,3.24283 2.48756,3.23944 2.48743,3.2356 2.48719,3.23135 2.48683,3.22671 2.48634,3.22169 2.48568,3.21631 2.48484,3.21061 2.4838,3.20459 2.48255,3.1983 2.48105,3.19173 2.47929,3.18492 2.47726,3.17789 2.47492,3.17065 2.47226,3.16324 2.46927,3.15568 2.46592,3.14798 2.46219,3.14016 2.45806,3.13226 2.45352,3.12428 2.44854,3.11626 2.4431,3.10822 2.43718,3.10017 2.43077,3.09213 2.42384,3.08414 2.41637,3.07621 "/>
     <polygon id="_330527312" class="fil1" points="2.72257,3.51136 6.50884,7.29763 5.99306,7.29763 2.20679,3.51136 "/>
     <polygon id="_330527144" class="fil1" points="2.44104,3.56452 6.2273,7.3508 6.22732,7.35098 6.22746,7.35156 6.22787,7.35259 6.22867,7.35411 6.22999,7.35619 6.23198,7.35886 6.23476,7.36217 6.23848,7.36618 6.24326,7.37094 2.45699,3.58467 2.45221,3.57991 2.4485,3.5759 2.44571,3.57259 2.44372,3.56992 2.4424,3.56784 2.4416,3.56631 2.4412,3.56529 2.44106,3.5647 "/>
     <polygon id="_330526904" class="fil1" points="5.28,4.28914 9.06627,8.07541 7.70174,8.07541 3.91548,4.28914 "/>
     <polygon id="_330527336" class="fil1" points="5.28,3.3558 9.06627,7.14207 9.06627,7.29763 5.28,3.51136 "/>
     <polygon id="_330526976" class="fil1" points="2.40199,3.97574 6.18826,7.76201 6.1816,7.76333 6.17496,7.76408 6.1684,7.76429 6.16196,7.76397 6.15568,7.76317 6.14963,7.76189 6.14384,7.76017 6.13836,7.75803 6.13326,7.75549 6.12856,7.75259 6.12433,7.74935 2.33807,3.96307 2.3423,3.96632 2.34699,3.96922 2.35209,3.97176 2.35757,3.97389 2.36336,3.97562 2.36941,3.97689 2.37569,3.9777 2.38213,3.97802 2.3887,3.97781 2.39533,3.97706 "/>
     <polygon id="_330527264" class="fil1" points="2.45544,3.63635 6.24171,7.42263 6.241,7.70669 2.45474,3.92042 "/>
     <polygon id="_330526616" class="fil1" points="2.53335,3.67355 6.31962,7.45982 6.30906,7.45086 6.29893,7.44346 6.28932,7.43748 6.28033,7.43277 6.27204,7.42917 6.26456,7.42654 6.25796,7.42472 6.25236,7.42356 6.24784,7.42293 6.2445,7.42266 6.24243,7.42261 6.24171,7.42263 2.45544,3.63635 2.45616,3.63634 2.45823,3.63639 2.46157,3.63666 2.46609,3.63729 2.4717,3.63844 2.47829,3.64026 2.48577,3.6429 2.49406,3.6465 2.50305,3.65121 2.51266,3.65719 2.52279,3.66459 "/>
     <polygon id="_330526784" class="fil1" points="2.53972,3.64983 6.32599,7.43611 6.33315,7.4432 6.33935,7.45043 6.34466,7.45769 6.34917,7.46489 6.35292,7.47194 6.35599,7.47876 6.35845,7.48524 6.36036,7.49131 6.3618,7.49686 6.36283,7.50181 6.36353,7.50606 6.36394,7.50953 6.36416,7.51212 6.36424,7.51374 6.36425,7.5143 2.57798,3.72803 2.57797,3.72747 2.57789,3.72585 2.57768,3.72326 2.57726,3.71979 2.57657,3.71554 2.57554,3.71059 2.57409,3.70504 2.57218,3.69897 2.56972,3.69249 2.56665,3.68567 2.5629,3.67861 2.55839,3.67141 2.55308,3.66415 2.54688,3.65693 "/>
     <polygon id="_330527960" class="fil1" points="3.64073,4.28914 7.427,8.07541 6.76112,8.07541 2.97485,4.28914 "/>
     <polygon id="_330527720" class="fil1" points="2.97485,4.28914 6.76112,8.07541 6.7606,8.08365 6.75981,8.09194 6.75874,8.10028 6.7574,8.10865 6.75577,8.11707 6.75386,8.12552 6.75167,8.13399 6.74919,8.14248 6.74643,8.15098 6.74337,8.15949 6.74004,8.168 6.73641,8.1765 6.73249,8.185 6.72827,8.19347 6.72377,8.20192 6.71896,8.21034 6.71387,8.21873 6.70847,8.22707 6.70277,8.23537 6.69677,8.24361 6.69047,8.2518 6.68387,8.25991 6.67696,8.26796 6.66975,8.27593 6.66222,8.28381 6.65439,8.29161 6.64625,8.29931 6.6378,8.30691 6.62903,8.3144 6.61995,8.32178 6.61055,8.32903 6.60084,8.33617 2.81457,4.54989 2.82428,4.54276 2.83368,4.5355 2.84276,4.52813 2.85153,4.52063 2.85998,4.51304 2.86813,4.50533 2.87596,4.49754 2.88348,4.48965 2.89069,4.48169 2.8976,4.47364 2.9042,4.46552 2.9105,4.45734 2.9165,4.44909 2.9222,4.4408 2.9276,4.43246 2.9327,4.42407 2.9375,4.41565 2.942,4.4072 2.94622,4.39872 2.95014,4.39023 2.95377,4.38173 2.95711,4.37322 2.96016,4.36471 2.96292,4.35621 2.9654,4.34772 2.96759,4.33925 2.9695,4.3308 2.97113,4.32238 2.97248,4.314 2.97354,4.30567 2.97433,4.29738 "/>
    </g>
    <path id="_328326240" class="fil1" d="M3.98801 2.57802l1.29199 0 0 0.155559 -1.26877 0 0.0928701 0.62222 1.1759 0 0 0.155559 -1.15268 0 0.0610315 0.408902c0.0104331,0.0662677 -0.0085748,0.142992 -0.0606772,0.213319l1.15232 0 0 0.155559 -1.36452 0c-0.100335,0.0368465 -0.200386,0.0334173 -0.274748,0l-0.665878 0c-0.00401969,0.0875276 -0.0549646,0.185362 -0.16028,0.260752 -0.172815,0.124398 -0.377004,0.106992 -0.466067,0.0065 -0.0584291,-0.0665669 -0.0666378,-0.169272 -0.0156772,-0.267252l-0.786165 0 0 -0.155559 0.93315 0c0.111197,-0.0715709 0.232118,-0.0873504 0.326374,-0.0620669l-0.0836102 -0.560154 -0.515787 0 -0.0110906 0.113441c-0.00473622,0.0497441 -0.0544055,0.0936142 -0.1195,0.103598 -0.0747559,0.0107677 -0.146925,-0.031 -0.150831,-0.0832756 -0.00855118,-0.0566575 0.0447205,-0.112433 0.119555,-0.123957 0.0336535,-0.00491339 0.0649921,-0.000283465 0.0913583,0.0120551l0.00208268 -0.0218622 -0.591701 0 0 -0.155559 0.60652 0 0.041815 -0.438992c0,0 0.00574803,-0.0269921 0.0423071,-0.027748 0,0 -0.00367717,0.0306024 0.171051,0.179303 0.0885866,0.0831693 0.0789488,0.184346 0.0789488,0.184346 -0.105772,-0.207913 -0.234409,-0.21287 -0.234409,-0.21287l-0.0308937 0.315961 0.477358 0 -0.092874 -0.62222 -1.05982 0 0 -0.155559 1.30361 0 1.0797 -0.38889 0.0580433 0.38889zm-1.53328 1.34239c0,0.0241496 -0.0218858,0.0475354 -0.052748,0.0553228 -0.0354724,0.0086063 -0.0721102,-0.0081811 -0.0763858,-0.0331535 -0.00670866,-0.0268701 0.0163661,-0.0561457 0.0518425,-0.065122 0.0159685,-0.00390551 0.0312559,-0.00311417 0.0445079,0.00161417l0 -0.299268c0,0 0.00152756,-0.013248 0.0190827,-0.0152874 0,0 -0.000366142,0.0148898 0.0905157,0.0784291 0.0464331,0.0359528 0.0464331,0.0850748 0.0464331,0.0850748 -0.0604173,-0.095185 -0.122539,-0.0916732 -0.122539,-0.0916732l-0.000708661 0.284063z"/>
   </g>
  </g>
  <path class="fil2" d="M3.41333 0c1.88513,0 3.41333,1.5282 3.41333,3.41333 0,1.88513 -1.5282,3.41333 -3.41333,3.41333 -1.88513,0 -3.41333,-1.5282 -3.41333,-3.41333 0,-1.88513 1.5282,-3.41333 3.41333,-3.41333z"/>
  <polygon class="fil3" points="1.54666,2.57802 5.28,2.57802 5.28,2.73358 1.54666,2.73358 "/>
  <polygon class="fil3" points="1.54666,3.3558 5.28,3.3558 5.28,3.51136 1.54666,3.51136 "/>
  <polygon class="fil3" points="1.54666,4.13358 5.28,4.13358 5.28,4.28914 1.54666,4.28914 "/>
  <path class="fil4" d="M2.59689 2.66929l0.209299 1.40223c-0.100024,-0.0268307 -0.230075,-0.00742126 -0.346665,0.0758346 -0.172827,0.12465 -0.199476,0.308264 -0.111016,0.409043 0.089063,0.100492 0.293252,0.117898 0.466067,-0.0065 0.124567,-0.0891732 0.173071,-0.209748 0.157827,-0.307524l-0.159965 -1.07172 1.0661 -0.384012 0.143724 0.962898c-0.0998976,-0.027 -0.230047,-0.0075748 -0.346732,0.0756929 -0.172634,0.124622 -0.19948,0.308268 -0.111028,0.409 0.0883858,0.100591 0.292602,0.118193 0.46611,-0.00655906 0.124469,-0.0891575 0.173134,-0.209661 0.157744,-0.307409l-0.258386 -1.73113 -1.33308 0.480154z"/>
  <path class="fil4" d="M2.80619 4.07152c-0.100024,-0.0268307 -0.230075,-0.00742126 -0.346665,0.0758346 -0.172827,0.12465 -0.199476,0.308264 -0.111016,0.409043 0.089063,0.100492 0.293252,0.117898 0.466067,-0.0065 0.124567,-0.0891732 0.173071,-0.209748 0.157827,-0.307524 -0.0334646,-0.105157 -0.0928346,-0.153437 -0.166213,-0.170854z"/>
  <path class="fil4" d="M4.02226 3.74954c-0.0998976,-0.027 -0.230047,-0.0075748 -0.346732,0.0756929 -0.172634,0.124622 -0.19948,0.308268 -0.111028,0.409 0.0883858,0.100591 0.292602,0.118193 0.46611,-0.00655906 0.124469,-0.0891575 0.173134,-0.209661 0.157744,-0.307409 -0.0418268,-0.0718031 -0.0966024,-0.129331 -0.166094,-0.170724z"/>
  <path class="fil5" d="M2.0762 3.7284c0.0650945,-0.00998425 0.114764,-0.0538543 0.1195,-0.103598l0.0571969 -0.584961c0,0 0.128638,0.00495669 0.234409,0.21287 0,0 0.0096378,-0.101177 -0.0789488,-0.184346 -0.174728,-0.148701 -0.171051,-0.179303 -0.171051,-0.179303 -0.0365591,0.000755906 -0.0423071,0.027748 -0.0423071,0.027748l-0.0587165 0.616413c-0.0263661,-0.0123386 -0.0577047,-0.0169685 -0.0913583,-0.0120551 -0.0748346,0.0115236 -0.128106,0.0672992 -0.119555,0.123957 0.00390551,0.0522756 0.0760748,0.0940433 0.150831,0.0832756z"/>
  <path class="fil5" d="M2.40199 3.97574c0.0308622,-0.0077874 0.052748,-0.0311732 0.052748,-0.0553228l0.000708661 -0.284063c0,0 0.062122,-0.00351181 0.122539,0.0916732 0,0 0,-0.049122 -0.0464331,-0.0850748 -0.0908819,-0.0635394 -0.0905157,-0.0784291 -0.0905157,-0.0784291 -0.0175551,0.00203937 -0.0190827,0.0152874 -0.0190827,0.0152874l0 0.299268c-0.013252,-0.00472835 -0.0285394,-0.00551969 -0.0445079,-0.00161417 -0.0354764,0.00897638 -0.0585512,0.038252 -0.0518425,0.065122 0.00427559,0.0249724 0.0409134,0.0417598 0.0763858,0.0331535z"/>
 </g>
</svg>
